Coordinates
version=1
nRows=14
nColumns=63
inDegrees=yes

Units are S.I. units (second, meters, Newtons, ...)
If the header above contains a line with 'inDegrees', this indicates whether rotational values are in degrees (yes) or radians (no).

endheader
time	pelvis_tilt	pelvis_list	pelvis_rotation	pelvis_tx	pelvis_ty	pelvis_tz	hip_flexion_r	hip_adduction_r	hip_rotation_r	knee_angle_r	knee_angle_r_beta	ankle_angle_r	subtalar_angle_r	mtp_angle_r	hip_flexion_l	hip_adduction_l	hip_rotation_l	knee_angle_l	knee_angle_l_beta	ankle_angle_l	subtalar_angle_l	mtp_angle_l	L5_S1_Flex_Ext	L5_S1_Lat_Bending	L5_S1_axial_rotation	L4_L5_Flex_Ext	L4_L5_Lat_Bending	L4_L5_axial_rotation	L3_L4_Flex_Ext	L3_L4_Lat_Bending	L3_L4_axial_rotation	L2_L3_Flex_Ext	L2_L3_Lat_Bending	L2_L3_axial_rotation	L1_L2_Flex_Ext	L1_L2_Lat_Bending	L1_L2_axial_rotation	L1_T12_Flex_Ext	L1_T12_Lat_Bending	L1_T12_axial_rotation	Abs_r3	Abs_r2	Abs_r1	Abs_t1	Abs_t2	neck_flexion	neck_bending	neck_rotation	arm_flex_r	arm_add_r	arm_rot_r	elbow_flex_r	pro_sup_r	wrist_flex_r	wrist_dev_r	arm_flex_l	arm_add_l	arm_rot_l	elbow_flex_l	pro_sup_l	wrist_flex_l	wrist_dev_l
0.000000	-0.519313	-3.834203	91.246883	0.244425	0.904239	0.619326	7.693601	-3.081850	-7.713534	15.855043	0.276723	36.480547	3.138548	0.000000	3.134016	2.352540	13.515272	4.779754	0.083422	31.612511	-13.156593	0.000000	0.312048	0.140735	-1.112876	0.579505	0.187178	-1.182431	0.512664	0.342183	-1.182431	0.356640	0.342183	-0.973767	0.289768	0.286987	-0.904212	0.178304	0.217999	-0.834657	2.228929	1.592024	-6.189485	0.000000	0.000000	27.774387	-0.526738	-1.730628	-5.020525	-17.158269	29.742305	91.307033	71.728869	13.567215	14.114044	-4.954699	-18.805523	32.409431	91.570928	65.132408	8.074183	4.180997
0.016667	-0.629479	-3.593086	89.971839	0.245537	0.907753	0.619654	8.074691	-2.911677	-5.455135	16.555745	0.288952	35.545379	1.072323	0.000000	2.774917	2.448957	12.728776	4.517140	0.078839	31.013841	-13.390312	0.000000	0.275438	0.156565	-0.838654	0.511516	0.208231	-0.891070	0.452517	0.380671	-0.891070	0.314798	0.380671	-0.733822	0.255772	0.319267	-0.681407	0.157385	0.242519	-0.628991	1.967425	1.771090	-4.664343	0.000000	0.000000	26.600590	-3.610602	-2.667045	-4.887161	-15.845423	24.872126	96.334003	76.073236	5.950997	11.453478	-5.314758	-17.008524	25.933336	96.967394	70.087505	1.810024	5.446036
0.033333	-0.768341	-3.346200	88.843865	0.246808	0.910814	0.619663	8.319781	-2.786032	-3.441834	17.115895	0.298729	34.705249	-0.765812	0.000000	2.430496	2.563126	11.896351	4.326123	0.075505	30.564799	-13.448971	0.000000	0.243351	0.167407	-0.630723	0.451926	0.222652	-0.670144	0.399801	0.407034	-0.670144	0.278125	0.407034	-0.551883	0.225975	0.341377	-0.512463	0.139051	0.259314	-0.473043	1.738229	1.893744	-3.507894	0.000000	0.000000	25.489412	-6.280218	-2.785863	-4.814239	-14.811585	20.457989	100.508516	79.666047	-0.265301	9.549046	-6.079461	-15.517387	19.662495	101.611735	74.348750	-3.330872	6.645623
0.050000	-0.931590	-3.095399	87.854851	0.248213	0.913450	0.619384	8.441301	-2.700723	-1.660328	17.546994	0.306253	33.956511	-2.388946	0.000000	2.099861	2.692038	11.033147	4.198380	0.073276	30.251267	-13.353898	0.000000	0.215489	0.173723	-0.483049	0.400184	0.231051	-0.513239	0.354026	0.422389	-0.513239	0.246282	0.422389	-0.422668	0.200103	0.354255	-0.392477	0.123130	0.269097	-0.362286	1.539215	1.965186	-2.686571	0.000000	0.000000	24.442810	-8.561277	-2.184530	-4.793970	-14.032548	16.482405	103.900443	82.572918	-5.205332	8.329742	-7.195319	-14.303594	13.623124	105.558773	77.966187	-7.449175	7.774724
0.066667	-1.114916	-2.842533	86.996687	0.249726	0.915692	0.618846	8.451683	-2.651557	-0.097311	17.860540	0.311725	33.295520	-3.810170	0.000000	1.782116	2.832684	10.154317	4.125591	0.072005	30.059127	-13.126423	0.000000	0.191555	0.175971	-0.389595	0.355736	0.234042	-0.413944	0.314705	0.427856	-0.413944	0.218928	0.427856	-0.340895	0.177878	0.358840	-0.316546	0.109454	0.272579	-0.292196	1.368257	1.990621	-2.166808	0.000000	0.000000	23.462742	-10.479467	-0.960497	-4.818566	-13.484106	12.927886	106.579654	84.859465	-8.992752	7.724562	-8.608841	-13.338628	7.841441	108.863334	80.989857	-10.645553	8.828308
0.083333	-1.314010	-2.589454	86.261262	0.251322	0.917569	0.618079	8.363360	-2.634343	1.260522	18.068035	0.315347	32.718631	-5.042572	0.000000	1.476366	2.982054	9.275013	4.099434	0.071549	29.974262	-12.787874	0.000000	0.171251	0.174612	-0.344326	0.318031	0.232234	-0.365846	0.281349	0.424552	-0.365846	0.195723	0.424552	-0.301285	0.159024	0.356069	-0.279765	0.097853	0.270474	-0.258244	1.223231	1.975248	-1.915036	0.000000	0.000000	22.551166	-12.060478	0.788788	-4.880237	-13.142053	9.776945	108.616019	86.591303	-11.751216	7.662500	-10.266535	-12.593969	2.343665	111.580241	83.469805	-13.020675	9.801341
0.100000	-1.524563	-2.338013	85.640466	0.252976	0.919110	0.617114	8.188764	-2.644887	2.426473	18.180978	0.317318	32.222198	-6.099242	0.000000	1.181719	3.137142	8.410386	4.111588	0.071761	29.982554	-12.359580	0.000000	0.154281	0.170106	-0.341207	0.286515	0.226241	-0.362532	0.253468	0.413595	-0.362532	0.176327	0.413595	-0.298556	0.143265	0.346880	-0.277230	0.088156	0.263494	-0.255905	1.102012	1.924271	-1.897689	0.000000	0.000000	21.710040	-13.329997	2.965876	-4.971196	-12.982182	7.012093	110.079409	87.834049	-13.604377	8.072553	-12.114910	-12.041100	-2.843987	113.764319	85.456075	-14.675210	10.688790
0.116667	-1.742266	-2.090062	85.126191	0.254662	0.920344	0.615978	7.940326	-2.678998	3.413849	18.210869	0.317840	31.802577	-6.993271	0.000000	0.897279	3.294936	7.575588	4.153730	0.072496	30.069883	-11.862870	0.000000	0.140346	0.162912	-0.374202	0.260636	0.216673	-0.397590	0.230574	0.396104	-0.397590	0.160401	0.396104	-0.327427	0.130325	0.332210	-0.304039	0.080193	0.252351	-0.280652	1.002474	1.842892	-2.081201	0.000000	0.000000	20.941322	-14.313716	5.473317	-5.083652	-12.980288	4.615843	111.039693	88.653317	-14.675892	8.883715	-14.100476	-11.651504	-7.695296	115.470391	86.998708	-15.709827	11.485621
0.133333	-1.962809	-1.847453	84.710324	0.256356	0.921302	0.614703	7.630478	-2.732483	4.235954	18.169208	0.317113	31.456122	-7.737747	0.000000	0.622153	3.452429	6.785771	4.217539	0.073610	30.222134	-11.319073	0.000000	0.129148	0.153490	-0.437277	0.239842	0.204142	-0.464607	0.212178	0.373196	-0.464607	0.147604	0.373196	-0.382617	0.119927	0.312997	-0.355287	0.073795	0.237756	-0.327958	0.922494	1.736312	-2.432003	0.000000	0.000000	20.246969	-15.037322	8.213663	-5.209818	-13.112165	2.570707	111.566742	89.114725	-15.089413	10.024981	-16.169741	-11.396661	-12.184046	116.753282	88.147749	-16.225193	12.186803
0.150000	-2.181882	-1.612038	84.384758	0.258031	0.922012	0.613319	7.271652	-2.801151	4.906093	18.067496	0.315337	31.179189	-8.345761	0.000000	0.355445	3.606612	6.056087	4.294694	0.074957	30.425187	-10.749516	0.000000	0.120392	0.142301	-0.524395	0.223579	0.189260	-0.557170	0.197791	0.345990	-0.557170	0.137596	0.345990	-0.458846	0.111796	0.290180	-0.426071	0.068792	0.220424	-0.393296	0.859946	1.609734	-2.916528	0.000000	0.000000	19.628940	-15.526505	11.089465	-5.341904	-13.353605	0.859198	111.730426	89.283888	-14.968597	11.425347	-18.269216	-11.248054	-16.284019	117.667817	88.953241	-16.321979	12.787301
0.166667	-2.395178	-1.385667	84.141381	0.259663	0.922504	0.611853	6.876280	-2.880807	5.437570	17.917232	0.312715	30.968131	-8.830401	0.000000	0.096262	3.754476	5.401688	4.376873	0.076391	30.664924	-10.175530	0.000000	0.113778	0.129803	-0.629522	0.211297	0.172638	-0.668867	0.186926	0.315603	-0.668867	0.130037	0.315603	-0.550832	0.105654	0.264694	-0.511486	0.065013	0.201065	-0.472141	0.812704	1.468359	-3.501211	0.000000	0.000000	19.089192	-15.806955	14.003273	-5.472122	-13.680403	-0.536174	111.600615	89.226422	-14.437097	13.013808	-20.345408	-11.177165	-19.968995	118.268818	89.465227	-16.100853	13.282084
0.183333	-2.577253	-1.144094	84.000900	0.261104	0.922907	0.610422	6.424418	-2.957653	5.756118	17.726665	0.309389	30.797083	-9.109291	0.000000	-0.168691	3.875399	4.711883	4.480458	0.078199	30.940679	-9.521906	0.000000	0.105295	0.119589	-0.732861	0.195543	0.159053	-0.778665	0.172989	0.290768	-0.778665	0.120342	0.290768	-0.641253	0.097777	0.243866	-0.595450	0.060166	0.185243	-0.549646	0.752112	1.352813	-4.075953	0.000000	0.000000	18.517271	-16.016524	16.566944	-5.485807	-14.058318	-1.391002	111.380033	88.633328	-14.022805	14.735470	-22.184356	-11.078712	-23.222659	118.665260	89.934264	-15.761498	13.989224
0.200000	-2.752062	-0.943078	83.921695	0.262444	0.923088	0.608895	5.997764	-3.043177	6.010428	17.518142	0.305749	30.714960	-9.364289	0.000000	-0.416002	3.991485	4.284410	4.548115	0.079380	31.211152	-9.000923	0.000000	0.101947	0.105993	-0.836488	0.189326	0.140970	-0.888769	0.167489	0.257711	-0.888769	0.116516	0.257711	-0.731927	0.094668	0.216140	-0.679647	0.058253	0.164183	-0.627366	0.728199	1.199011	-4.652297	0.000000	0.000000	18.106909	-16.020096	18.838732	-5.642077	-14.455624	-2.232500	111.109652	88.520689	-13.225760	16.341919	-23.846410	-11.020019	-25.733101	118.787465	90.135940	-15.529030	13.951547
0.216667	-2.913052	-0.775617	83.880580	0.263692	0.923084	0.607354	5.608519	-3.137869	6.154323	17.318938	0.302272	30.722720	-9.499106	0.000000	-0.648232	4.095329	4.017378	4.577463	0.079892	31.486255	-8.531051	0.000000	0.102015	0.090636	-0.942117	0.189453	0.120545	-1.001000	0.167601	0.220371	-1.001000	0.116593	0.220371	-0.824353	0.094732	0.184824	-0.765470	0.058292	0.140395	-0.706588	0.728686	1.025288	-5.239775	0.000000	0.000000	17.852248	-15.841747	20.849497	-5.810498	-14.861819	-2.879081	110.795354	88.637161	-12.368421	17.869106	-25.335929	-10.944809	-27.639167	118.776591	90.057498	-15.353794	13.551611
